<svg width="101" height="101" viewBox="0 0 101 101" fill="none" xmlns="http://www.w3.org/2000/svg">
<path d="M63.3 59.9C67.1 55.3 69.5 49.4 69.5 42.9C69.5 28.3 57.6 16.4 43 16.4C28.4 16.4 16.5 28.3 16.5 42.9C16.5 57.5 28.4 69.4 43 69.4C49.4 69.4 55.4 67.1 60 63.2L80.6 83.8C81.1 84.3 81.7 84.5 82.3 84.5C82.9 84.5 83.5 84.3 84 83.8C84.9 82.9 84.9 81.3 84 80.4L63.3 59.9ZM42.9 64.6C30.9 64.6 21.2 54.9 21.2 42.9C21.2 30.9 30.9 21.2 42.9 21.2C54.9 21.2 64.6 30.9 64.6 42.9C64.6 54.9 54.9 64.6 42.9 64.6Z" fill="#CCCCCC"/>
</svg>
